<svg width="120" height="24" fill="none" xmlns="http://www.w3.org/2000/svg"><path d="M40.395 7.609a6.34 6.34 0 011.05 2.089c.234.787.353 1.604.352 2.426a7.355 7.355 0 01-.593 3.067 6.351 6.351 0 01-1.538 2.142c-.62.555-1.345.98-2.13 1.248a7.233 7.233 0 01-2.351.407 5.846 5.846 0 01-1.511-.169 31.524 31.524 0 01-1.08-.325V24h-3.862l.019-18.14h3.722c.035.234.062.464.08.69.02.226.036.458.054.692A4.02 4.02 0 0134.2 6.035a5.041 5.041 0 012.015-.42 5.091 5.091 0 014.18 1.994zm40.38 0a6.348 6.348 0 011.05 2.089c.234.787.352 1.604.351 2.426a7.355 7.355 0 01-.593 3.067 6.351 6.351 0 01-1.538 2.142 6.204 6.204 0 01-2.125 1.248 7.233 7.233 0 01-2.35.407 5.845 5.845 0 01-1.512-.169 31.388 31.388 0 01-1.08-.325V24h-3.861l.008-18.14h3.723c.035.234.062.464.08.69.019.226.037.458.054.692a4.03 4.03 0 011.592-1.207 5.04 5.04 0 012.014-.42 5.091 5.091 0 014.186 1.994zM5.96 5.415a9.87 9.87 0 012.833.38c.796.24 1.551.601 2.238 1.073L9.387 9.444a8.38 8.38 0 00-1.417-.733 4.713 4.713 0 00-1.793-.324c-.593 0-1.026.086-1.295.257a.787.787 0 00-.404.692c0 .416.28.723.84.922a29.1 29.1 0 002.264.676c1.294.361 2.234.858 2.82 1.49.585.633.877 1.474.876 2.524a3.374 3.374 0 01-.475 1.823 3.937 3.937 0 01-1.268 1.261 5.95 5.95 0 01-1.807.747 8.81 8.81 0 01-2.063.245 10.993 10.993 0 01-3.21-.461A5.753 5.753 0 010 17.15l1.916-2.504a4.956 4.956 0 001.632.95 5.538 5.538 0 001.954.379c.486.014.97-.06 1.43-.218a.824.824 0 00.566-.844.86.86 0 00-.12-.448 1.143 1.143 0 00-.445-.38 5.579 5.579 0 00-.904-.366c-.388-.127-.878-.27-1.47-.434a9.683 9.683 0 01-1.443-.507 5.202 5.202 0 01-1.267-.773 3.522 3.522 0 01-.89-1.113 3.498 3.498 0 01.067-3.132 3.95 3.95 0 011.118-1.248 5.32 5.32 0 011.7-.814 7.618 7.618 0 012.116-.284zm94.807.016a6.928 6.928 0 012.75.528 6.402 6.402 0 012.131 1.45 6.674 6.674 0 011.39 2.157c.665 1.7.665 3.59 0 5.29a6.542 6.542 0 01-3.526 3.62 6.788 6.788 0 01-2.75.544 6.898 6.898 0 01-2.765-.543 6.568 6.568 0 01-2.144-1.464 6.681 6.681 0 01-1.389-2.157 6.991 6.991 0 01-.498-2.644 7.003 7.003 0 01.503-2.646 6.682 6.682 0 011.389-2.156 6.403 6.403 0 012.144-1.45 7.04 7.04 0 012.765-.53zm-50.708-.006a6.312 6.312 0 012.696.54 5.552 5.552 0 011.954 1.504c.55.68.96 1.464 1.201 2.306.279.956.415 1.948.405 2.944v.65h-9.008c.017.686.318 1.288.903 1.805.586.516 1.39.774 2.415.771 1.007 0 1.825-.149 2.454-.447a8.487 8.487 0 001.375-.772l1.592 2.47c-.144.092-.36.24-.648.448-.35.244-.726.449-1.12.611a10.23 10.23 0 01-1.63.529 9.153 9.153 0 01-2.16.231 8.022 8.022 0 01-2.912-.506 6.308 6.308 0 01-2.198-1.4 5.88 5.88 0 01-1.374-2.15 7.896 7.896 0 01-.471-2.78 7.496 7.496 0 01.444-2.564 6.436 6.436 0 011.282-2.156 6.239 6.239 0 012.05-1.478 6.544 6.544 0 012.75-.556zM17.45 5.86v7.324c0 .723.175 1.292.526 1.709.35.416.867.624 1.55.623a2.31 2.31 0 001.052-.23 2.466 2.466 0 001.268-1.506c.11-.342.166-.698.168-1.057V5.859h3.861v12.722h-3.732l-.11-1.35a4.703 4.703 0 01-1.63 1.207 4.94 4.94 0 01-2.116.474c-1.456 0-2.607-.434-3.454-1.302-.848-.868-1.27-2.151-1.268-3.851v-7.9h3.885zm48.472-.244a6.12 6.12 0 01.877.054c.244.037.483.1.713.19l-.62 3.445a4.619 4.619 0 00-1.401-.19c-.917 0-1.659.275-2.226.827-.568.551-.851 1.334-.85 2.347v6.293h-3.89V5.86h3.722l.134 1.6c.38-.485.833-.906 1.344-1.248.565-.398 1.297-.596 2.197-.596zm25.942 0a6.16 6.16 0 01.877.054c.244.037.484.1.715.19l-.621 3.445a4.619 4.619 0 00-1.402-.19c-.917 0-1.659.275-2.225.827-.566.551-.85 1.334-.85 2.347v6.293h-3.891V5.86h3.722l.134 1.6c.38-.485.833-.906 1.344-1.248.566-.398 1.299-.596 2.197-.596zM116.01 0a7.575 7.575 0 012.077.299A5.086 5.086 0 01120 1.329a54.12 54.12 0 01-.823 1.234c-.28.408-.554.82-.822 1.235a3.173 3.173 0 00-.89-.461 3.082 3.082 0 00-.998-.17 1.691 1.691 0 00-1.294.518c-.324.337-.485.825-.485 1.464v.705h2.993V8.92h-2.993v9.657h-3.862l.002-9.652h-2.05V5.86h2.05v-.651a5.57 5.57 0 01.445-2.332 4.67 4.67 0 011.175-1.615 4.829 4.829 0 011.659-.949A5.947 5.947 0 01116.009 0zM75.66 8.943a2.584 2.584 0 00-1.148.243 2.495 2.495 0 00-.839.652 2.86 2.86 0 00-.512.922c-.114.34-.17.699-.168 1.059l-.005 3.399c.504.337 1.25.506 2.24.506.952 0 1.703-.32 2.251-.962.549-.642.823-1.496.823-2.564 0-.411-.05-.821-.148-1.22a3.165 3.165 0 00-.46-1.046 2.31 2.31 0 00-.808-.717 2.548 2.548 0 00-1.227-.272zm-40.375 0a2.584 2.584 0 00-1.147.243c-.323.154-.61.377-.84.652a2.88 2.88 0 00-.512.922 3.26 3.26 0 00-.167 1.059l-.006 3.399c.504.337 1.25.506 2.24.506.952 0 1.702-.32 2.252-.962.55-.642.824-1.496.822-2.564 0-.411-.05-.821-.149-1.22a3.127 3.127 0 00-.458-1.046 2.3 2.3 0 00-.81-.717 2.537 2.537 0 00-1.225-.272zm65.478-.122a2.935 2.935 0 00-1.308.284 2.746 2.746 0 00-.957.76 3.456 3.456 0 00-.58 1.085 4.048 4.048 0 000 2.523c.129.397.325.768.58 1.098.255.33.583.594.957.773a2.94 2.94 0 001.308.28v.006c.448.007.891-.09 1.295-.286a2.84 2.84 0 00.957-.773c.26-.326.457-.698.581-1.098a4.32 4.32 0 000-2.523 3.199 3.199 0 00-.581-1.085 2.95 2.95 0 00-.957-.76 2.855 2.855 0 00-1.295-.284zm-50.737-.358c-.407-.008-.81.07-1.185.23a2.658 2.658 0 00-.85.584 2.51 2.51 0 00-.514.772 2.17 2.17 0 00-.167.827h5.339a2.315 2.315 0 00-.168-.827 2.414 2.414 0 00-.485-.772 2.603 2.603 0 00-.81-.584 2.682 2.682 0 00-1.16-.23z" fill="#fff"/></svg>