<svg width="200" height="41" fill="none" xmlns="http://www.w3.org/2000/svg"><path d="M67.324 12.707a10.598 10.598 0 011.752 3.489c.39 1.315.587 2.68.585 4.052a12.304 12.304 0 01-.988 5.121 10.607 10.607 0 01-2.563 3.579 10.34 10.34 0 01-3.551 2.084c-1.26.442-2.584.672-3.918.68a9.719 9.719 0 01-2.518-.282 52.68 52.68 0 01-1.8-.545v9.197h-6.436l.031-30.296h6.204c.059.392.103.775.134 1.153.031.378.059.764.09 1.156a6.703 6.703 0 012.653-2.016 8.388 8.388 0 013.357-.702 8.48 8.48 0 016.968 3.33zm67.299 0a10.61 10.61 0 011.752 3.489c.39 1.315.587 2.68.585 4.052a12.312 12.312 0 01-.988 5.121 10.605 10.605 0 01-2.563 3.579 10.334 10.334 0 01-3.543 2.084 12.02 12.02 0 01-3.917.68 9.723 9.723 0 01-2.519-.282c-.66-.188-1.26-.37-1.799-.545v9.197h-6.436l.014-30.296h6.204c.058.392.103.775.134 1.153.031.378.062.764.09 1.156a6.71 6.71 0 012.652-2.016 8.389 8.389 0 013.358-.702 8.478 8.478 0 016.976 3.33zM9.934 9.044c1.596-.02 3.186.195 4.72.635a13.341 13.341 0 013.73 1.79l-2.739 4.304a13.959 13.959 0 00-2.361-1.224 7.84 7.84 0 00-2.99-.542c-.987 0-1.709.144-2.157.429a1.316 1.316 0 00-.674 1.156c0 .694.467 1.207 1.4 1.54.932.333 2.19.709 3.774 1.128 2.157.603 3.723 1.433 4.698 2.49.976 1.056 1.463 2.46 1.461 4.213a5.643 5.643 0 01-.792 3.046 6.578 6.578 0 01-2.113 2.107c-.928.579-1.946 1-3.01 1.246a14.658 14.658 0 01-3.44.409 18.29 18.29 0 01-5.35-.77A9.584 9.584 0 010 28.643l3.193-4.182a8.253 8.253 0 002.72 1.588c1.04.406 2.142.62 3.257.632a6.7 6.7 0 002.384-.364c.6-.195.99-.777.943-1.41a1.44 1.44 0 00-.201-.747 1.907 1.907 0 00-.742-.635 9.306 9.306 0 00-1.505-.612 57.89 57.89 0 00-2.452-.725 16.246 16.246 0 01-2.403-.846 8.666 8.666 0 01-2.113-1.291 5.88 5.88 0 01-1.483-1.859 5.853 5.853 0 01.112-5.23 6.592 6.592 0 011.863-2.085 8.86 8.86 0 012.832-1.36 12.672 12.672 0 013.529-.473zm158.011.025a11.533 11.533 0 014.584.883 10.685 10.685 0 013.551 2.422 11.155 11.155 0 012.317 3.602 12.157 12.157 0 010 8.835 10.92 10.92 0 01-5.876 6.046c-1.449.62-3.01.928-4.584.908a11.46 11.46 0 01-4.609-.908 10.946 10.946 0 01-3.573-2.445 11.137 11.137 0 01-2.314-3.601 11.688 11.688 0 01-.831-4.416 11.705 11.705 0 01.839-4.42 11.17 11.17 0 012.314-3.6 10.679 10.679 0 013.574-2.423 11.71 11.71 0 014.608-.883zm-84.514-.008c1.546-.035 3.08.272 4.494.9a9.256 9.256 0 013.258 2.512 10.912 10.912 0 012 3.852c.465 1.596.692 3.253.675 4.916v1.085H78.845c.028 1.147.53 2.152 1.505 3.015.976.863 2.317 1.293 4.024 1.289 1.68 0 3.043-.25 4.091-.747a14.15 14.15 0 002.292-1.29l2.653 4.127c-.24.152-.6.4-1.08.747a9.908 9.908 0 01-1.867 1.02c-.88.37-1.788.666-2.717.883-1.18.272-2.388.401-3.598.387a13.343 13.343 0 01-4.855-.846 10.512 10.512 0 01-3.663-2.338 9.824 9.824 0 01-2.29-3.59 13.212 13.212 0 01-.786-4.645c-.003-1.46.248-2.908.742-4.28a10.754 10.754 0 012.135-3.602 10.4 10.4 0 013.417-2.467 10.888 10.888 0 014.583-.928zm-54.346.725v12.23c0 1.207.292 2.159.876 2.854.584.696 1.445 1.043 2.583 1.04a3.85 3.85 0 001.755-.383 4.116 4.116 0 002.112-2.515c.183-.57.277-1.166.28-1.766V9.786h6.436v21.246h-6.22l-.182-2.256a7.84 7.84 0 01-2.717 2.016 8.216 8.216 0 01-3.529.793c-2.425 0-4.344-.725-5.756-2.175-1.412-1.449-2.116-3.593-2.113-6.432V9.786h6.476zm80.787-.41c.489-.004.977.026 1.461.091.407.062.806.169 1.189.319l-1.032 5.753a7.684 7.684 0 00-2.337-.32c-1.528 0-2.765.461-3.71 1.383-.946.921-1.418 2.228-1.416 3.92v10.51h-6.484V9.786h6.204l.224 2.67a9.707 9.707 0 012.238-2.084c.943-.663 2.163-.995 3.663-.995zm43.237 0c.488-.004.977.026 1.461.091.407.062.807.17 1.192.319l-1.036 5.753a7.682 7.682 0 00-2.336-.32c-1.528 0-2.764.461-3.708 1.383-.944.921-1.416 2.228-1.416 3.92v10.51h-6.486V9.786h6.203l.224 2.67a9.691 9.691 0 012.239-2.084c.944-.663 2.165-.995 3.663-.995zM193.348 0a12.6 12.6 0 013.462.5A8.464 8.464 0 01200 2.22a91.496 91.496 0 01-1.371 2.06 87.727 87.727 0 00-1.371 2.062 5.283 5.283 0 00-1.483-.77 5.129 5.129 0 00-1.663-.282 2.816 2.816 0 00-2.157.863c-.539.564-.809 1.38-.809 2.445v1.18h4.99v5.118h-4.99v16.127h-6.436l.003-16.119h-3.417V9.786h3.417V8.697a9.325 9.325 0 01.741-3.894 7.823 7.823 0 011.959-2.696 8.038 8.038 0 012.765-1.585 9.9 9.9 0 013.17-.522zm-67.251 14.935a4.296 4.296 0 00-1.911.406 4.165 4.165 0 00-1.399 1.089 4.807 4.807 0 00-.854 1.54 5.473 5.473 0 00-.28 1.768l-.008 5.677c.839.564 2.084.846 3.733.846 1.587 0 2.838-.536 3.752-1.608.915-1.072 1.372-2.498 1.372-4.28 0-.688-.083-1.373-.247-2.04a5.285 5.285 0 00-.766-1.745 3.86 3.86 0 00-1.346-1.199 4.24 4.24 0 00-2.046-.454zm-67.29 0a4.3 4.3 0 00-1.912.406 4.173 4.173 0 00-1.4 1.089 4.801 4.801 0 00-.853 1.54 5.454 5.454 0 00-.28 1.768l-.008 5.677c.84.564 2.084.846 3.733.846 1.586 0 2.837-.536 3.753-1.608.915-1.072 1.373-2.498 1.37-4.28a8.395 8.395 0 00-.248-2.04 5.23 5.23 0 00-.764-1.745 3.836 3.836 0 00-1.349-1.199 4.221 4.221 0 00-2.043-.454zm109.13-.203a4.887 4.887 0 00-2.18.474 4.587 4.587 0 00-1.595 1.269 5.78 5.78 0 00-.968 1.813 6.772 6.772 0 000 4.213c.216.663.543 1.283.968 1.833.424.55.971.993 1.595 1.292a4.89 4.89 0 002.18.468v.008a4.752 4.752 0 002.158-.476 4.728 4.728 0 001.595-1.292 5.58 5.58 0 00.968-1.833 7.235 7.235 0 000-4.213 5.316 5.316 0 00-.968-1.813 4.92 4.92 0 00-1.595-1.27 4.75 4.75 0 00-2.158-.473zm-84.562-.598a4.766 4.766 0 00-1.975.384 4.43 4.43 0 00-1.416.975 4.189 4.189 0 00-.856 1.29 3.629 3.629 0 00-.28 1.381h8.898a3.873 3.873 0 00-.28-1.382 4.033 4.033 0 00-.808-1.289 4.34 4.34 0 00-1.349-.975 4.464 4.464 0 00-1.934-.384z" fill="#121212"/></svg>